<?xml version="1.0" encoding="UTF-8"?>
<!DOCTYPE svg PUBLIC "-//W3C//DTD SVG 1.1//EN" "http://www.w3.org/Graphics/SVG/1.1/DTD/svg11.dtd">
<!-- Creator: CorelDRAW 2021.5 -->
<svg xmlns="http://www.w3.org/2000/svg" xml:space="preserve" width="12.6998mm" height="12.6998mm" version="1.1" style="shape-rendering:geometricPrecision; text-rendering:geometricPrecision; image-rendering:optimizeQuality; fill-rule:evenodd; clip-rule:evenodd"
viewBox="0 0 1269.98 1269.98"
 xmlns:xlink="http://www.w3.org/1999/xlink"
 xmlns:xodm="http://www.corel.com/coreldraw/odm/2003">
 <defs>
  <style type="text/css">
   <![CDATA[
    .fil0 {fill:none}
    .fil1 {fill:#ED3237}
   ]]>
  </style>
 </defs>
 <g id="Capa_x0020_1">
  <metadata id="CorelCorpID_0Corel-Layer"/>
  <rect class="fil0" x="-0.01" y="-0" width="1269.99" height="1269.99"/>
  <g id="_2998189984960">
   <path class="fil1" d="M52.27 152.09c0,44.57 30.94,63.97 65.23,80.45l71.37 33.33c34.66,15.4 93.54,37.12 107.64,69.91 6.42,14.92 59.56,437.76 68.01,496.48 4.15,28.94 10.37,84.63 58.77,84.63l614.59 0c47.69,0 56.38,-62.31 66.02,-86.49 16.4,-41.11 62.42,-186.09 77.67,-231.89 16.42,-49.27 36.14,-84.33 36.14,-134.59 0,-27.16 -24.76,-45.52 -52.36,-45.52l-746.6 0c0,-20.73 -15.5,-128.69 -20.01,-137.05 -11.99,-22.4 -66.94,-55.67 -91.55,-67.81 -9.13,-4.49 -15.86,-9.15 -25.01,-13.67l-107 -52.35c-15.94,-8.01 -69.64,-36.41 -84.2,-36.41 -25.85,0 -38.32,21.6 -38.71,40.11l0 0.87zm514.06 598.23c2.19,15.28 5.48,44.69 31.03,44.69l324.55 0c25.18,0 29.77,-32.91 34.86,-45.67 8.66,-21.71 32.96,-98.28 41.01,-122.46 8.67,-26.01 19.08,-44.53 19.08,-71.07 0,-14.34 -13.07,-24.03 -27.64,-24.03l-394.25 0c-60.06,0 -42.19,-2.19 -28.64,218.54z"/>
   <path class="fil1" d="M421.02 1060.3c0,14.18 3.34,26.88 7.75,37.77 8.42,20.86 23.01,37.69 42.36,48.7 38.76,22.04 87.87,13.42 120.08,-20.98 34.98,-37.41 30.47,-96.93 -3.37,-132.14 -60.54,-63.04 -166.82,-16.32 -166.82,66.65z"/>
   <path class="fil1" d="M899.04 1158.17c31.51,0 50.59,-1.02 77.06,-25.37 19.53,-17.98 34.27,-48.35 31.67,-74.1 -2.96,-29.48 -11.4,-47.89 -28.46,-65.03 -28.82,-28.94 -73.46,-37.91 -109.95,-19.96 -61.35,30.22 -73.95,105.21 -31.47,152.28l5.63 5.74c2.48,2.32 3.63,3.36 5.95,5.43 6.24,5.61 6.22,4.84 13.79,8.97 9.84,5.39 21.98,12.04 35.78,12.04z"/>
  </g>
 </g>
</svg>
