<?xml version="1.0" encoding="UTF-8"?>
<!DOCTYPE svg PUBLIC "-//W3C//DTD SVG 1.1//EN" "http://www.w3.org/Graphics/SVG/1.1/DTD/svg11.dtd">
<!-- Creator: CorelDRAW 2021.5 -->
<svg xmlns="http://www.w3.org/2000/svg" xml:space="preserve" width="12.6998mm" height="12.6998mm" version="1.1" style="shape-rendering:geometricPrecision; text-rendering:geometricPrecision; image-rendering:optimizeQuality; fill-rule:evenodd; clip-rule:evenodd"
viewBox="0 0 1269.98 1269.98"
 xmlns:xlink="http://www.w3.org/1999/xlink"
 xmlns:xodm="http://www.corel.com/coreldraw/odm/2003">
 <defs>
  <style type="text/css">
   <![CDATA[
    .fil0 {fill:none}
    .fil1 {fill:#ED3237}
   ]]>
  </style>
 </defs>
 <g id="Capa_x0020_1">
  <metadata id="CorelCorpID_0Corel-Layer"/>
  <rect class="fil0" x="-0.01" y="-0" width="1269.99" height="1269.99"/>
  <g id="_3034348455296">
   <path class="fil1" d="M140.25 1128.38l0 21.47c0,13.17 14.74,27.91 27.91,27.91l910.29 0c13.17,0 27.91,-14.74 27.91,-27.91 0,-120.44 -42.93,-220.42 -121.78,-303.3l-54.65 -46.26c-136.73,-92.45 -224.1,-77.68 -386.06,-77.68 -76.88,0 -137.82,25.82 -194.64,56.55 -27.58,14.92 -49.75,33.89 -72.09,54.58 -5.58,5.17 -8.74,6.04 -14.05,11.72 -33.52,35.85 -60.55,74.93 -82.78,119.02 -19.37,38.43 -40.06,107.21 -40.06,163.9z"/>
   <path class="fil1" d="M333.47 353.34c0,63.08 7.99,110.11 39.52,162.3 17.54,29.03 21.7,29.49 36.86,49.01 14.64,18.85 45.62,41.61 66.19,54.04 99.13,59.89 218.94,50.67 315.17,-13.71 6.99,-4.67 13.43,-9.22 19.42,-14.94 6.8,-6.5 11.52,-9.3 18.28,-16.06 6.76,-6.76 9.56,-11.48 16.07,-18.29 36.48,-38.18 68.16,-119 68.16,-172.29 0,-79.46 -12.23,-121.64 -53.22,-182.94 -4.67,-6.98 -9.23,-13.42 -14.94,-19.41 -26.58,-27.81 -37.89,-41.4 -74.43,-62.97 -40.03,-23.62 -86.61,-37.14 -133.68,-39.54l-30.25 0c-37.48,1.92 -74.46,11.04 -107.84,27.9 -7.41,3.74 -15.21,7.07 -22.74,11.62 -17.37,10.49 -44.54,30.55 -58.36,44.69 -24.66,25.2 -40.48,49.76 -56.31,81.09 -12.94,25.65 -27.9,71.16 -27.9,109.5z"/>
  </g>
 </g>
</svg>
